%TF.GenerationSoftware,KiCad,Pcbnew,(6.0.7-1)-1*%
%TF.CreationDate,2022-09-29T19:12:14-05:00*%
%TF.ProjectId,vectrex-sao,76656374-7265-4782-9d73-616f2e6b6963,rev?*%
%TF.SameCoordinates,Original*%
%TF.FileFunction,Paste,Bot*%
%TF.FilePolarity,Positive*%
%FSLAX46Y46*%
G04 Gerber Fmt 4.6, Leading zero omitted, Abs format (unit mm)*
G04 Created by KiCad (PCBNEW (6.0.7-1)-1) date 2022-09-29 19:12:14*
%MOMM*%
%LPD*%
G01*
G04 APERTURE LIST*
G04 Aperture macros list*
%AMRoundRect*
0 Rectangle with rounded corners*
0 $1 Rounding radius*
0 $2 $3 $4 $5 $6 $7 $8 $9 X,Y pos of 4 corners*
0 Add a 4 corners polygon primitive as box body*
4,1,4,$2,$3,$4,$5,$6,$7,$8,$9,$2,$3,0*
0 Add four circle primitives for the rounded corners*
1,1,$1+$1,$2,$3*
1,1,$1+$1,$4,$5*
1,1,$1+$1,$6,$7*
1,1,$1+$1,$8,$9*
0 Add four rect primitives between the rounded corners*
20,1,$1+$1,$2,$3,$4,$5,0*
20,1,$1+$1,$4,$5,$6,$7,0*
20,1,$1+$1,$6,$7,$8,$9,0*
20,1,$1+$1,$8,$9,$2,$3,0*%
G04 Aperture macros list end*
%ADD10RoundRect,0.250000X-0.475000X0.250000X-0.475000X-0.250000X0.475000X-0.250000X0.475000X0.250000X0*%
%ADD11R,0.800000X0.500000*%
%ADD12R,0.800000X0.400000*%
%ADD13RoundRect,0.150000X0.875000X0.150000X-0.875000X0.150000X-0.875000X-0.150000X0.875000X-0.150000X0*%
%ADD14RoundRect,0.232500X0.232500X0.232500X-0.232500X0.232500X-0.232500X-0.232500X0.232500X-0.232500X0*%
%ADD15RoundRect,0.050000X0.362500X0.050000X-0.362500X0.050000X-0.362500X-0.050000X0.362500X-0.050000X0*%
%ADD16RoundRect,0.050000X0.050000X0.362500X-0.050000X0.362500X-0.050000X-0.362500X0.050000X-0.362500X0*%
G04 APERTURE END LIST*
D10*
%TO.C,C1*%
X131445000Y-73350000D03*
X131445000Y-75250000D03*
%TD*%
D11*
%TO.C,R1*%
X118910000Y-73095000D03*
D12*
X118910000Y-73895000D03*
X118910000Y-74695000D03*
D11*
X118910000Y-75495000D03*
X117310000Y-75495000D03*
D12*
X117310000Y-74695000D03*
X117310000Y-73895000D03*
D11*
X117310000Y-73095000D03*
%TD*%
D10*
%TO.C,C2*%
X129540000Y-73350000D03*
X129540000Y-75250000D03*
%TD*%
D13*
%TO.C,U1*%
X112450000Y-70495000D03*
X112450000Y-71765000D03*
X112450000Y-73035000D03*
X112450000Y-74305000D03*
X112450000Y-75575000D03*
X112450000Y-76845000D03*
X112450000Y-78115000D03*
X112450000Y-79385000D03*
X112450000Y-80655000D03*
X112450000Y-81925000D03*
X112450000Y-83195000D03*
X112450000Y-84465000D03*
X112450000Y-85735000D03*
X112450000Y-87005000D03*
X103150000Y-87005000D03*
X103150000Y-85735000D03*
X103150000Y-84465000D03*
X103150000Y-83195000D03*
X103150000Y-81925000D03*
X103150000Y-80655000D03*
X103150000Y-79385000D03*
X103150000Y-78115000D03*
X103150000Y-76845000D03*
X103150000Y-75575000D03*
X103150000Y-74305000D03*
X103150000Y-73035000D03*
X103150000Y-71765000D03*
X103150000Y-70495000D03*
%TD*%
D10*
%TO.C,C3*%
X133350000Y-73345000D03*
X133350000Y-75245000D03*
%TD*%
D14*
%TO.C,U2*%
X124400000Y-73720000D03*
X123250000Y-74870000D03*
X123250000Y-73720000D03*
X124400000Y-74870000D03*
D15*
X125762500Y-73095000D03*
X125762500Y-73495000D03*
X125762500Y-73895000D03*
X125762500Y-74295000D03*
X125762500Y-74695000D03*
X125762500Y-75095000D03*
X125762500Y-75495000D03*
D16*
X125025000Y-76232500D03*
X124625000Y-76232500D03*
X124225000Y-76232500D03*
X123825000Y-76232500D03*
X123425000Y-76232500D03*
X123025000Y-76232500D03*
X122625000Y-76232500D03*
D15*
X121887500Y-75495000D03*
X121887500Y-75095000D03*
X121887500Y-74695000D03*
X121887500Y-74295000D03*
X121887500Y-73895000D03*
X121887500Y-73495000D03*
X121887500Y-73095000D03*
D16*
X122625000Y-72357500D03*
X123025000Y-72357500D03*
X123425000Y-72357500D03*
X123825000Y-72357500D03*
X124225000Y-72357500D03*
X124625000Y-72357500D03*
X125025000Y-72357500D03*
%TD*%
M02*
