%TF.GenerationSoftware,KiCad,Pcbnew,(6.0.7-1)-1*%
%TF.CreationDate,2022-09-29T19:12:14-05:00*%
%TF.ProjectId,vectrex-sao,76656374-7265-4782-9d73-616f2e6b6963,rev?*%
%TF.SameCoordinates,Original*%
%TF.FileFunction,Profile,NP*%
%FSLAX46Y46*%
G04 Gerber Fmt 4.6, Leading zero omitted, Abs format (unit mm)*
G04 Created by KiCad (PCBNEW (6.0.7-1)-1) date 2022-09-29 19:12:14*
%MOMM*%
%LPD*%
G01*
G04 APERTURE LIST*
%TA.AperFunction,Profile*%
%ADD10C,0.150000*%
%TD*%
G04 APERTURE END LIST*
D10*
X143475000Y-115200000D02*
X142900000Y-125075000D01*
X101075000Y-68175000D02*
X102575000Y-68175000D01*
X145873377Y-71078959D02*
X146100000Y-71550000D01*
X108075000Y-129900000D02*
X103300000Y-124425000D01*
X146950000Y-75050000D02*
X145825000Y-114950000D01*
X110900000Y-129475000D02*
X108075000Y-129900000D01*
X145873377Y-71078959D02*
G75*
G03*
X145200000Y-70550001I-973377J-546041D01*
G01*
X146250000Y-74550000D02*
X146298071Y-72875142D01*
X101600000Y-119825000D02*
X100475000Y-68775000D01*
X140000000Y-125550000D02*
X137725000Y-124025000D01*
X145825000Y-114950000D02*
X143475000Y-115200000D01*
X137725000Y-124025000D02*
X110900000Y-127625000D01*
X142900000Y-125075000D02*
X140000000Y-125550000D01*
X146950000Y-75050000D02*
X146250000Y-74550000D01*
X102575000Y-68175000D02*
X139275000Y-68775000D01*
X139275000Y-68775000D02*
X145200000Y-70550000D01*
X100475000Y-68775000D02*
X101075000Y-68175000D01*
X110900000Y-127625000D02*
X110900000Y-129475000D01*
X103300000Y-124425000D02*
X101600000Y-119825000D01*
X146298071Y-72875142D02*
G75*
G03*
X146099999Y-71550000I-4698071J-24858D01*
G01*
M02*
