%TF.GenerationSoftware,KiCad,Pcbnew,(6.0.7-1)-1*%
%TF.CreationDate,2022-09-29T19:12:14-05:00*%
%TF.ProjectId,vectrex-sao,76656374-7265-4782-9d73-616f2e6b6963,rev?*%
%TF.SameCoordinates,Original*%
%TF.FileFunction,Legend,Bot*%
%TF.FilePolarity,Positive*%
%FSLAX46Y46*%
G04 Gerber Fmt 4.6, Leading zero omitted, Abs format (unit mm)*
G04 Created by KiCad (PCBNEW (6.0.7-1)-1) date 2022-09-29 19:12:14*
%MOMM*%
%LPD*%
G01*
G04 APERTURE LIST*
%ADD10C,0.150000*%
%ADD11C,0.700000*%
%ADD12C,0.500000*%
%ADD13C,0.120000*%
G04 APERTURE END LIST*
D10*
%TO.C,J2*%
X113082857Y-124026571D02*
X112975714Y-124062285D01*
X112797142Y-124062285D01*
X112725714Y-124026571D01*
X112690000Y-123990857D01*
X112654285Y-123919428D01*
X112654285Y-123848000D01*
X112690000Y-123776571D01*
X112725714Y-123740857D01*
X112797142Y-123705142D01*
X112940000Y-123669428D01*
X113011428Y-123633714D01*
X113047142Y-123598000D01*
X113082857Y-123526571D01*
X113082857Y-123455142D01*
X113047142Y-123383714D01*
X113011428Y-123348000D01*
X112940000Y-123312285D01*
X112761428Y-123312285D01*
X112654285Y-123348000D01*
X111904285Y-123990857D02*
X111940000Y-124026571D01*
X112047142Y-124062285D01*
X112118571Y-124062285D01*
X112225714Y-124026571D01*
X112297142Y-123955142D01*
X112332857Y-123883714D01*
X112368571Y-123740857D01*
X112368571Y-123633714D01*
X112332857Y-123490857D01*
X112297142Y-123419428D01*
X112225714Y-123348000D01*
X112118571Y-123312285D01*
X112047142Y-123312285D01*
X111940000Y-123348000D01*
X111904285Y-123383714D01*
X111225714Y-124062285D02*
X111582857Y-124062285D01*
X111582857Y-123312285D01*
X110221428Y-123348000D02*
X110292857Y-123312285D01*
X110400000Y-123312285D01*
X110507142Y-123348000D01*
X110578571Y-123419428D01*
X110614285Y-123490857D01*
X110650000Y-123633714D01*
X110650000Y-123740857D01*
X110614285Y-123883714D01*
X110578571Y-123955142D01*
X110507142Y-124026571D01*
X110400000Y-124062285D01*
X110328571Y-124062285D01*
X110221428Y-124026571D01*
X110185714Y-123990857D01*
X110185714Y-123740857D01*
X110328571Y-123740857D01*
X109864285Y-124062285D02*
X109864285Y-123312285D01*
X109435714Y-124062285D01*
X109435714Y-123312285D01*
X109078571Y-124062285D02*
X109078571Y-123312285D01*
X108900000Y-123312285D01*
X108792857Y-123348000D01*
X108721428Y-123419428D01*
X108685714Y-123490857D01*
X108650000Y-123633714D01*
X108650000Y-123740857D01*
X108685714Y-123883714D01*
X108721428Y-123955142D01*
X108792857Y-124026571D01*
X108900000Y-124062285D01*
X109078571Y-124062285D01*
X113100714Y-118184571D02*
X112993571Y-118220285D01*
X112815000Y-118220285D01*
X112743571Y-118184571D01*
X112707857Y-118148857D01*
X112672142Y-118077428D01*
X112672142Y-118006000D01*
X112707857Y-117934571D01*
X112743571Y-117898857D01*
X112815000Y-117863142D01*
X112957857Y-117827428D01*
X113029285Y-117791714D01*
X113065000Y-117756000D01*
X113100714Y-117684571D01*
X113100714Y-117613142D01*
X113065000Y-117541714D01*
X113029285Y-117506000D01*
X112957857Y-117470285D01*
X112779285Y-117470285D01*
X112672142Y-117506000D01*
X112350714Y-118220285D02*
X112350714Y-117470285D01*
X112172142Y-117470285D01*
X112065000Y-117506000D01*
X111993571Y-117577428D01*
X111957857Y-117648857D01*
X111922142Y-117791714D01*
X111922142Y-117898857D01*
X111957857Y-118041714D01*
X111993571Y-118113142D01*
X112065000Y-118184571D01*
X112172142Y-118220285D01*
X112350714Y-118220285D01*
X111636428Y-118006000D02*
X111279285Y-118006000D01*
X111707857Y-118220285D02*
X111457857Y-117470285D01*
X111207857Y-118220285D01*
X110650000Y-117470285D02*
X110400000Y-118220285D01*
X110150000Y-117470285D01*
X109471428Y-118148857D02*
X109507142Y-118184571D01*
X109614285Y-118220285D01*
X109685714Y-118220285D01*
X109792857Y-118184571D01*
X109864285Y-118113142D01*
X109900000Y-118041714D01*
X109935714Y-117898857D01*
X109935714Y-117791714D01*
X109900000Y-117648857D01*
X109864285Y-117577428D01*
X109792857Y-117506000D01*
X109685714Y-117470285D01*
X109614285Y-117470285D01*
X109507142Y-117506000D01*
X109471428Y-117541714D01*
X108721428Y-118148857D02*
X108757142Y-118184571D01*
X108864285Y-118220285D01*
X108935714Y-118220285D01*
X109042857Y-118184571D01*
X109114285Y-118113142D01*
X109150000Y-118041714D01*
X109185714Y-117898857D01*
X109185714Y-117791714D01*
X109150000Y-117648857D01*
X109114285Y-117577428D01*
X109042857Y-117506000D01*
X108935714Y-117470285D01*
X108864285Y-117470285D01*
X108757142Y-117506000D01*
X108721428Y-117541714D01*
X117234142Y-123348000D02*
X117305571Y-123312285D01*
X117412714Y-123312285D01*
X117519857Y-123348000D01*
X117591285Y-123419428D01*
X117627000Y-123490857D01*
X117662714Y-123633714D01*
X117662714Y-123740857D01*
X117627000Y-123883714D01*
X117591285Y-123955142D01*
X117519857Y-124026571D01*
X117412714Y-124062285D01*
X117341285Y-124062285D01*
X117234142Y-124026571D01*
X117198428Y-123990857D01*
X117198428Y-123740857D01*
X117341285Y-123740857D01*
X116877000Y-124062285D02*
X116877000Y-123312285D01*
X116591285Y-123312285D01*
X116519857Y-123348000D01*
X116484142Y-123383714D01*
X116448428Y-123455142D01*
X116448428Y-123562285D01*
X116484142Y-123633714D01*
X116519857Y-123669428D01*
X116591285Y-123705142D01*
X116877000Y-123705142D01*
X116127000Y-124062285D02*
X116127000Y-123312285D01*
X115627000Y-123312285D02*
X115484142Y-123312285D01*
X115412714Y-123348000D01*
X115341285Y-123419428D01*
X115305571Y-123562285D01*
X115305571Y-123812285D01*
X115341285Y-123955142D01*
X115412714Y-124026571D01*
X115484142Y-124062285D01*
X115627000Y-124062285D01*
X115698428Y-124026571D01*
X115769857Y-123955142D01*
X115805571Y-123812285D01*
X115805571Y-123562285D01*
X115769857Y-123419428D01*
X115698428Y-123348000D01*
X115627000Y-123312285D01*
X115019857Y-123383714D02*
X114984142Y-123348000D01*
X114912714Y-123312285D01*
X114734142Y-123312285D01*
X114662714Y-123348000D01*
X114627000Y-123383714D01*
X114591285Y-123455142D01*
X114591285Y-123526571D01*
X114627000Y-123633714D01*
X115055571Y-124062285D01*
X114591285Y-124062285D01*
X117234142Y-117506000D02*
X117305571Y-117470285D01*
X117412714Y-117470285D01*
X117519857Y-117506000D01*
X117591285Y-117577428D01*
X117627000Y-117648857D01*
X117662714Y-117791714D01*
X117662714Y-117898857D01*
X117627000Y-118041714D01*
X117591285Y-118113142D01*
X117519857Y-118184571D01*
X117412714Y-118220285D01*
X117341285Y-118220285D01*
X117234142Y-118184571D01*
X117198428Y-118148857D01*
X117198428Y-117898857D01*
X117341285Y-117898857D01*
X116877000Y-118220285D02*
X116877000Y-117470285D01*
X116591285Y-117470285D01*
X116519857Y-117506000D01*
X116484142Y-117541714D01*
X116448428Y-117613142D01*
X116448428Y-117720285D01*
X116484142Y-117791714D01*
X116519857Y-117827428D01*
X116591285Y-117863142D01*
X116877000Y-117863142D01*
X116127000Y-118220285D02*
X116127000Y-117470285D01*
X115627000Y-117470285D02*
X115484142Y-117470285D01*
X115412714Y-117506000D01*
X115341285Y-117577428D01*
X115305571Y-117720285D01*
X115305571Y-117970285D01*
X115341285Y-118113142D01*
X115412714Y-118184571D01*
X115484142Y-118220285D01*
X115627000Y-118220285D01*
X115698428Y-118184571D01*
X115769857Y-118113142D01*
X115805571Y-117970285D01*
X115805571Y-117720285D01*
X115769857Y-117577428D01*
X115698428Y-117506000D01*
X115627000Y-117470285D01*
X114591285Y-118220285D02*
X115019857Y-118220285D01*
X114805571Y-118220285D02*
X114805571Y-117470285D01*
X114877000Y-117577428D01*
X114948428Y-117648857D01*
X115019857Y-117684571D01*
D11*
X119556000Y-124993000D02*
X119556000Y-116611000D01*
X104824000Y-124993000D02*
X119556000Y-124993000D01*
X104824000Y-116611000D02*
X104824000Y-124993000D01*
X109650000Y-116611000D02*
X104824000Y-116611000D01*
X119469640Y-116560200D02*
X114730000Y-116560200D01*
D12*
X107990000Y-118675000D02*
G75*
G03*
X107990000Y-118675000I-1000000J0D01*
G01*
D13*
%TO.C,SJ1*%
X121450000Y-70885000D02*
X121450000Y-70085000D01*
X119850000Y-70085000D02*
X119850000Y-70885000D01*
%TO.C,C1*%
X130710000Y-74038748D02*
X130710000Y-74561252D01*
X132180000Y-74038748D02*
X132180000Y-74561252D01*
%TO.C,R1*%
X117610000Y-72615000D02*
X118610000Y-72615000D01*
X117610000Y-75975000D02*
X118610000Y-75975000D01*
%TO.C,C2*%
X130275000Y-74038748D02*
X130275000Y-74561252D01*
X128805000Y-74038748D02*
X128805000Y-74561252D01*
%TO.C,U1*%
X103940000Y-87810000D02*
X103940000Y-87565000D01*
X111660000Y-69690000D02*
X111660000Y-69935000D01*
X107800000Y-87810000D02*
X103940000Y-87810000D01*
X107800000Y-87810000D02*
X111660000Y-87810000D01*
X111660000Y-87810000D02*
X111660000Y-87565000D01*
X111660000Y-69935000D02*
X113475000Y-69935000D01*
X103940000Y-69690000D02*
X103940000Y-69935000D01*
X107800000Y-69690000D02*
X111660000Y-69690000D01*
X107800000Y-69690000D02*
X103940000Y-69690000D01*
%TO.C,C3*%
X134085000Y-74033748D02*
X134085000Y-74556252D01*
X132615000Y-74033748D02*
X132615000Y-74556252D01*
%TO.C,U2*%
X121715000Y-76405000D02*
X121715000Y-75855000D01*
X121715000Y-72185000D02*
X121715000Y-72735000D01*
X125385000Y-72185000D02*
X125935000Y-72185000D01*
X125385000Y-76405000D02*
X125935000Y-76405000D01*
X125935000Y-76405000D02*
X125935000Y-75855000D01*
X122265000Y-76405000D02*
X121715000Y-76405000D01*
X122265000Y-72185000D02*
X121715000Y-72185000D01*
%TD*%
M02*
